<?xml version="1.0" encoding="utf-8" standalone="no"?>
<!DOCTYPE svg PUBLIC "-//W3C//DTD SVG 1.1//EN"
  "http://www.w3.org/Graphics/SVG/1.1/DTD/svg11.dtd">
<!-- Created with matplotlib (https://matplotlib.org/) -->
<svg height="194.4pt" version="1.1" viewBox="0 0 223.2 194.4" width="223.2pt" xmlns="http://www.w3.org/2000/svg" xmlns:xlink="http://www.w3.org/1999/xlink">
 <defs>
  <style type="text/css">
*{stroke-linecap:butt;stroke-linejoin:round;}
  </style>
 </defs>
 <g id="figure_1">
  <g id="patch_1">
   <path d="M 0 194.4 
L 223.2 194.4 
L 223.2 0 
L 0 0 
z
" style="fill:#ffffff;"/>
  </g>
  <g id="axes_1">
   <g id="patch_2">
    <path d="M 37.906562 158.298438 
L 213.209052 158.298438 
L 213.209052 8.64 
L 37.906562 8.64 
z
" style="fill:#ffffff;"/>
   </g>
   <g id="matplotlib.axis_1">
    <g id="xtick_1">
     <g id="line2d_1">
      <defs>
       <path d="M 0 0 
L 0 3.5 
" id="m380088f0d3" style="stroke:#000000;stroke-width:0.8;"/>
      </defs>
      <g>
       <use style="stroke:#000000;stroke-width:0.8;" x="38.988519" xlink:href="#m380088f0d3" y="158.298438"/>
      </g>
     </g>
     <g id="text_1">
      <!-- −6 -->
      <defs>
       <path d="M 52.828125 31.203125 
L 5.5625 31.203125 
L 5.5625 39.40625 
L 52.828125 39.40625 
z
" id="ArialMT-8722"/>
       <path d="M 49.75 54.046875 
L 41.015625 53.375 
Q 39.84375 58.546875 37.703125 60.890625 
Q 34.125 64.65625 28.90625 64.65625 
Q 24.703125 64.65625 21.53125 62.3125 
Q 17.390625 59.28125 14.984375 53.46875 
Q 12.59375 47.65625 12.5 36.921875 
Q 15.671875 41.75 20.265625 44.09375 
Q 24.859375 46.4375 29.890625 46.4375 
Q 38.671875 46.4375 44.84375 39.96875 
Q 51.03125 33.5 51.03125 23.25 
Q 51.03125 16.5 48.125 10.71875 
Q 45.21875 4.9375 40.140625 1.859375 
Q 35.0625 -1.21875 28.609375 -1.21875 
Q 17.625 -1.21875 10.6875 6.859375 
Q 3.765625 14.9375 3.765625 33.5 
Q 3.765625 54.25 11.421875 63.671875 
Q 18.109375 71.875 29.4375 71.875 
Q 37.890625 71.875 43.28125 67.140625 
Q 48.6875 62.40625 49.75 54.046875 
z
M 13.875 23.1875 
Q 13.875 18.65625 15.796875 14.5 
Q 17.71875 10.359375 21.1875 8.171875 
Q 24.65625 6 28.46875 6 
Q 34.03125 6 38.03125 10.484375 
Q 42.046875 14.984375 42.046875 22.703125 
Q 42.046875 30.125 38.078125 34.390625 
Q 34.125 38.671875 28.125 38.671875 
Q 22.171875 38.671875 18.015625 34.390625 
Q 13.875 30.125 13.875 23.1875 
z
" id="ArialMT-54"/>
      </defs>
      <g transform="translate(34.427894 171.024688)scale(0.08 -0.08)">
       <use xlink:href="#ArialMT-8722"/>
       <use x="58.398438" xlink:href="#ArialMT-54"/>
      </g>
     </g>
    </g>
    <g id="xtick_2">
     <g id="line2d_2">
      <g>
       <use style="stroke:#000000;stroke-width:0.8;" x="67.878654" xlink:href="#m380088f0d3" y="158.298438"/>
      </g>
     </g>
     <g id="text_2">
      <!-- −4 -->
      <defs>
       <path d="M 32.328125 0 
L 32.328125 17.140625 
L 1.265625 17.140625 
L 1.265625 25.203125 
L 33.9375 71.578125 
L 41.109375 71.578125 
L 41.109375 25.203125 
L 50.78125 25.203125 
L 50.78125 17.140625 
L 41.109375 17.140625 
L 41.109375 0 
z
M 32.328125 25.203125 
L 32.328125 57.46875 
L 9.90625 25.203125 
z
" id="ArialMT-52"/>
      </defs>
      <g transform="translate(63.318029 171.024688)scale(0.08 -0.08)">
       <use xlink:href="#ArialMT-8722"/>
       <use x="58.398438" xlink:href="#ArialMT-52"/>
      </g>
     </g>
    </g>
    <g id="xtick_3">
     <g id="line2d_3">
      <g>
       <use style="stroke:#000000;stroke-width:0.8;" x="96.768788" xlink:href="#m380088f0d3" y="158.298438"/>
      </g>
     </g>
     <g id="text_3">
      <!-- −2 -->
      <defs>
       <path d="M 50.34375 8.453125 
L 50.34375 0 
L 3.03125 0 
Q 2.9375 3.171875 4.046875 6.109375 
Q 5.859375 10.9375 9.828125 15.625 
Q 13.8125 20.3125 21.34375 26.46875 
Q 33.015625 36.03125 37.109375 41.625 
Q 41.21875 47.21875 41.21875 52.203125 
Q 41.21875 57.421875 37.46875 61 
Q 33.734375 64.59375 27.734375 64.59375 
Q 21.390625 64.59375 17.578125 60.78125 
Q 13.765625 56.984375 13.71875 50.25 
L 4.6875 51.171875 
Q 5.609375 61.28125 11.65625 66.578125 
Q 17.71875 71.875 27.9375 71.875 
Q 38.234375 71.875 44.234375 66.15625 
Q 50.25 60.453125 50.25 52 
Q 50.25 47.703125 48.484375 43.546875 
Q 46.734375 39.40625 42.65625 34.8125 
Q 38.578125 30.21875 29.109375 22.21875 
Q 21.1875 15.578125 18.9375 13.203125 
Q 16.703125 10.84375 15.234375 8.453125 
z
" id="ArialMT-50"/>
      </defs>
      <g transform="translate(92.208163 171.024688)scale(0.08 -0.08)">
       <use xlink:href="#ArialMT-8722"/>
       <use x="58.398438" xlink:href="#ArialMT-50"/>
      </g>
     </g>
    </g>
    <g id="xtick_4">
     <g id="line2d_4">
      <g>
       <use style="stroke:#000000;stroke-width:0.8;" x="125.658923" xlink:href="#m380088f0d3" y="158.298438"/>
      </g>
     </g>
     <g id="text_4">
      <!-- 0 -->
      <defs>
       <path d="M 4.15625 35.296875 
Q 4.15625 48 6.765625 55.734375 
Q 9.375 63.484375 14.515625 67.671875 
Q 19.671875 71.875 27.484375 71.875 
Q 33.25 71.875 37.59375 69.546875 
Q 41.9375 67.234375 44.765625 62.859375 
Q 47.609375 58.5 49.21875 52.21875 
Q 50.828125 45.953125 50.828125 35.296875 
Q 50.828125 22.703125 48.234375 14.96875 
Q 45.65625 7.234375 40.5 3 
Q 35.359375 -1.21875 27.484375 -1.21875 
Q 17.140625 -1.21875 11.234375 6.203125 
Q 4.15625 15.140625 4.15625 35.296875 
z
M 13.1875 35.296875 
Q 13.1875 17.671875 17.3125 11.828125 
Q 21.4375 6 27.484375 6 
Q 33.546875 6 37.671875 11.859375 
Q 41.796875 17.71875 41.796875 35.296875 
Q 41.796875 52.984375 37.671875 58.78125 
Q 33.546875 64.59375 27.390625 64.59375 
Q 21.34375 64.59375 17.71875 59.46875 
Q 13.1875 52.9375 13.1875 35.296875 
z
" id="ArialMT-48"/>
      </defs>
      <g transform="translate(123.434548 171.024688)scale(0.08 -0.08)">
       <use xlink:href="#ArialMT-48"/>
      </g>
     </g>
    </g>
    <g id="xtick_5">
     <g id="line2d_5">
      <g>
       <use style="stroke:#000000;stroke-width:0.8;" x="154.549057" xlink:href="#m380088f0d3" y="158.298438"/>
      </g>
     </g>
     <g id="text_5">
      <!-- 2 -->
      <g transform="translate(152.324682 171.024688)scale(0.08 -0.08)">
       <use xlink:href="#ArialMT-50"/>
      </g>
     </g>
    </g>
    <g id="xtick_6">
     <g id="line2d_6">
      <g>
       <use style="stroke:#000000;stroke-width:0.8;" x="183.439192" xlink:href="#m380088f0d3" y="158.298438"/>
      </g>
     </g>
     <g id="text_6">
      <!-- 4 -->
      <g transform="translate(181.214817 171.024688)scale(0.08 -0.08)">
       <use xlink:href="#ArialMT-52"/>
      </g>
     </g>
    </g>
    <g id="xtick_7">
     <g id="line2d_7">
      <g>
       <use style="stroke:#000000;stroke-width:0.8;" x="212.329327" xlink:href="#m380088f0d3" y="158.298438"/>
      </g>
     </g>
     <g id="text_7">
      <!-- 6 -->
      <g transform="translate(210.104952 171.024688)scale(0.08 -0.08)">
       <use xlink:href="#ArialMT-54"/>
      </g>
     </g>
    </g>
    <g id="text_8">
     <!-- $a_1$ -->
     <defs>
      <path d="M 53.71875 31.203125 
L 47.609375 0 
L 38.625 0 
L 40.28125 8.296875 
Q 36.328125 3.421875 31.265625 1 
Q 26.21875 -1.421875 20.015625 -1.421875 
Q 13.03125 -1.421875 8.5625 2.84375 
Q 4.109375 7.125 4.109375 13.8125 
Q 4.109375 23.390625 11.75 28.953125 
Q 19.390625 34.515625 32.8125 34.515625 
L 45.3125 34.515625 
L 45.796875 36.921875 
Q 45.90625 37.3125 45.953125 37.765625 
Q 46 38.234375 46 39.203125 
Q 46 43.5625 42.453125 45.96875 
Q 38.921875 48.390625 32.515625 48.390625 
Q 28.125 48.390625 23.5 47.265625 
Q 18.890625 46.140625 14.015625 43.890625 
L 15.578125 52.203125 
Q 20.65625 54.109375 25.515625 55.046875 
Q 30.375 56 34.90625 56 
Q 44.578125 56 49.625 51.796875 
Q 54.6875 47.609375 54.6875 39.59375 
Q 54.6875 37.984375 54.4375 35.8125 
Q 54.203125 33.640625 53.71875 31.203125 
z
M 44 27.484375 
L 35.015625 27.484375 
Q 23.96875 27.484375 18.671875 24.53125 
Q 13.375 21.578125 13.375 15.375 
Q 13.375 11.078125 16.078125 8.640625 
Q 18.796875 6.203125 23.578125 6.203125 
Q 30.90625 6.203125 36.375 11.453125 
Q 41.84375 16.703125 43.609375 25.484375 
z
" id="DejaVuSans-Oblique-97"/>
      <path d="M 12.40625 8.296875 
L 28.515625 8.296875 
L 28.515625 63.921875 
L 10.984375 60.40625 
L 10.984375 69.390625 
L 28.421875 72.90625 
L 38.28125 72.90625 
L 38.28125 8.296875 
L 54.390625 8.296875 
L 54.390625 0 
L 12.40625 0 
z
" id="DejaVuSans-49"/>
     </defs>
     <g transform="translate(120.107807 183.7725)scale(0.1 -0.1)">
      <use xlink:href="#DejaVuSans-Oblique-97"/>
      <use transform="translate(61.279297 -16.40625)scale(0.7)" xlink:href="#DejaVuSans-49"/>
     </g>
    </g>
   </g>
   <g id="matplotlib.axis_2">
    <g id="ytick_1">
     <g id="line2d_8">
      <defs>
       <path d="M 0 0 
L -3.5 0 
" id="mdf15b5990b" style="stroke:#000000;stroke-width:0.8;"/>
      </defs>
      <g>
       <use style="stroke:#000000;stroke-width:0.8;" x="37.906562" xlink:href="#mdf15b5990b" y="143.062956"/>
      </g>
     </g>
     <g id="text_9">
      <!-- −4 -->
      <g transform="translate(21.785312 145.926081)scale(0.08 -0.08)">
       <use xlink:href="#ArialMT-8722"/>
       <use x="58.398438" xlink:href="#ArialMT-52"/>
      </g>
     </g>
    </g>
    <g id="ytick_2">
     <g id="line2d_9">
      <g>
       <use style="stroke:#000000;stroke-width:0.8;" x="37.906562" xlink:href="#mdf15b5990b" y="114.200509"/>
      </g>
     </g>
     <g id="text_10">
      <!-- −2 -->
      <g transform="translate(21.785312 117.063634)scale(0.08 -0.08)">
       <use xlink:href="#ArialMT-8722"/>
       <use x="58.398438" xlink:href="#ArialMT-50"/>
      </g>
     </g>
    </g>
    <g id="ytick_3">
     <g id="line2d_10">
      <g>
       <use style="stroke:#000000;stroke-width:0.8;" x="37.906562" xlink:href="#mdf15b5990b" y="85.338062"/>
      </g>
     </g>
     <g id="text_11">
      <!-- 0 -->
      <g transform="translate(26.457812 88.201187)scale(0.08 -0.08)">
       <use xlink:href="#ArialMT-48"/>
      </g>
     </g>
    </g>
    <g id="ytick_4">
     <g id="line2d_11">
      <g>
       <use style="stroke:#000000;stroke-width:0.8;" x="37.906562" xlink:href="#mdf15b5990b" y="56.475615"/>
      </g>
     </g>
     <g id="text_12">
      <!-- 2 -->
      <g transform="translate(26.457812 59.33874)scale(0.08 -0.08)">
       <use xlink:href="#ArialMT-50"/>
      </g>
     </g>
    </g>
    <g id="ytick_5">
     <g id="line2d_12">
      <g>
       <use style="stroke:#000000;stroke-width:0.8;" x="37.906562" xlink:href="#mdf15b5990b" y="27.613169"/>
      </g>
     </g>
     <g id="text_13">
      <!-- 4 -->
      <g transform="translate(26.457812 30.476294)scale(0.08 -0.08)">
       <use xlink:href="#ArialMT-52"/>
      </g>
     </g>
    </g>
    <g id="text_14">
     <!-- $a_2$ -->
     <defs>
      <path d="M 19.1875 8.296875 
L 53.609375 8.296875 
L 53.609375 0 
L 7.328125 0 
L 7.328125 8.296875 
Q 12.9375 14.109375 22.625 23.890625 
Q 32.328125 33.6875 34.8125 36.53125 
Q 39.546875 41.84375 41.421875 45.53125 
Q 43.3125 49.21875 43.3125 52.78125 
Q 43.3125 58.59375 39.234375 62.25 
Q 35.15625 65.921875 28.609375 65.921875 
Q 23.96875 65.921875 18.8125 64.3125 
Q 13.671875 62.703125 7.8125 59.421875 
L 7.8125 69.390625 
Q 13.765625 71.78125 18.9375 73 
Q 24.125 74.21875 28.421875 74.21875 
Q 39.75 74.21875 46.484375 68.546875 
Q 53.21875 62.890625 53.21875 53.421875 
Q 53.21875 48.921875 51.53125 44.890625 
Q 49.859375 40.875 45.40625 35.40625 
Q 44.1875 33.984375 37.640625 27.21875 
Q 31.109375 20.453125 19.1875 8.296875 
z
" id="DejaVuSans-50"/>
     </defs>
     <g transform="translate(15.797812 88.919219)rotate(-90)scale(0.1 -0.1)">
      <use xlink:href="#DejaVuSans-Oblique-97"/>
      <use transform="translate(61.279297 -16.40625)scale(0.7)" xlink:href="#DejaVuSans-50"/>
     </g>
    </g>
   </g>
   <g id="line2d_13">
    <defs>
     <path d="M 0 0.75 
C 0.198902 0.75 0.389685 0.670975 0.53033 0.53033 
C 0.670975 0.389685 0.75 0.198902 0.75 0 
C 0.75 -0.198902 0.670975 -0.389685 0.53033 -0.53033 
C 0.389685 -0.670975 0.198902 -0.75 0 -0.75 
C -0.198902 -0.75 -0.389685 -0.670975 -0.53033 -0.53033 
C -0.670975 -0.389685 -0.75 -0.198902 -0.75 0 
C -0.75 0.198902 -0.670975 0.389685 -0.53033 0.53033 
C -0.389685 0.670975 -0.198902 0.75 0 0.75 
z
" id="mdf204dcc9d" style="stroke:#009cff;stroke-width:0.5;"/>
    </defs>
    <g clip-path="url(#pf253e5cd85)">
     <use style="fill:#009cff;stroke:#009cff;stroke-width:0.5;" x="78.423553" xlink:href="#mdf204dcc9d" y="62.30583"/>
    </g>
   </g>
   <g id="line2d_14">
    <g clip-path="url(#pf253e5cd85)">
     <use style="fill:#009cff;stroke:#009cff;stroke-width:0.5;" x="53.433586" xlink:href="#mdf204dcc9d" y="73.215835"/>
    </g>
   </g>
   <g id="line2d_15">
    <g clip-path="url(#pf253e5cd85)">
     <use style="fill:#009cff;stroke:#009cff;stroke-width:0.5;" x="75.794551" xlink:href="#mdf204dcc9d" y="65.0189"/>
    </g>
   </g>
   <g id="line2d_16">
    <g clip-path="url(#pf253e5cd85)">
     <use style="fill:#009cff;stroke:#009cff;stroke-width:0.5;" x="145.939797" xlink:href="#mdf204dcc9d" y="115.6292"/>
    </g>
   </g>
   <g id="line2d_17">
    <g clip-path="url(#pf253e5cd85)">
     <use style="fill:#009cff;stroke:#009cff;stroke-width:0.5;" x="88.289534" xlink:href="#mdf204dcc9d" y="122.224269"/>
    </g>
   </g>
   <g id="line2d_18">
    <g clip-path="url(#pf253e5cd85)">
     <use style="fill:#009cff;stroke:#009cff;stroke-width:0.5;" x="86.873917" xlink:href="#mdf204dcc9d" y="47.946762"/>
    </g>
   </g>
   <g id="line2d_19">
    <g clip-path="url(#pf253e5cd85)">
     <use style="fill:#009cff;stroke:#009cff;stroke-width:0.5;" x="148.799921" xlink:href="#mdf204dcc9d" y="141.331209"/>
    </g>
   </g>
   <g id="line2d_20">
    <g clip-path="url(#pf253e5cd85)">
     <use style="fill:#009cff;stroke:#009cff;stroke-width:0.5;" x="125.05223" xlink:href="#mdf204dcc9d" y="14.581774"/>
    </g>
   </g>
   <g id="line2d_21">
    <g clip-path="url(#pf253e5cd85)">
     <use style="fill:#009cff;stroke:#009cff;stroke-width:0.5;" x="65.769674" xlink:href="#mdf204dcc9d" y="74.586801"/>
    </g>
   </g>
   <g id="line2d_22">
    <g clip-path="url(#pf253e5cd85)">
     <use style="fill:#009cff;stroke:#009cff;stroke-width:0.5;" x="90.557409" xlink:href="#mdf204dcc9d" y="130.781985"/>
    </g>
   </g>
   <g id="line2d_23">
    <g clip-path="url(#pf253e5cd85)">
     <use style="fill:#009cff;stroke:#009cff;stroke-width:0.5;" x="156.946939" xlink:href="#mdf204dcc9d" y="106.537529"/>
    </g>
   </g>
   <g id="line2d_24">
    <g clip-path="url(#pf253e5cd85)">
     <use style="fill:#009cff;stroke:#009cff;stroke-width:0.5;" x="122.899915" xlink:href="#mdf204dcc9d" y="125.803213"/>
    </g>
   </g>
   <g id="line2d_25">
    <g clip-path="url(#pf253e5cd85)">
     <use style="fill:#009cff;stroke:#009cff;stroke-width:0.5;" x="66.925279" xlink:href="#mdf204dcc9d" y="64.210751"/>
    </g>
   </g>
   <g id="line2d_26">
    <g clip-path="url(#pf253e5cd85)">
     <use style="fill:#009cff;stroke:#009cff;stroke-width:0.5;" x="78.582449" xlink:href="#mdf204dcc9d" y="135.876207"/>
    </g>
   </g>
   <g id="line2d_27">
    <g clip-path="url(#pf253e5cd85)">
     <use style="fill:#009cff;stroke:#009cff;stroke-width:0.5;" x="152.237847" xlink:href="#mdf204dcc9d" y="42.60721"/>
    </g>
   </g>
   <g id="line2d_28">
    <g clip-path="url(#pf253e5cd85)">
     <use style="fill:#009cff;stroke:#009cff;stroke-width:0.5;" x="154.939074" xlink:href="#mdf204dcc9d" y="90.591027"/>
    </g>
   </g>
   <g id="line2d_29">
    <g clip-path="url(#pf253e5cd85)">
     <use style="fill:#009cff;stroke:#009cff;stroke-width:0.5;" x="98.097734" xlink:href="#mdf204dcc9d" y="41.78463"/>
    </g>
   </g>
   <g id="line2d_30">
    <g clip-path="url(#pf253e5cd85)">
     <use style="fill:#009cff;stroke:#009cff;stroke-width:0.5;" x="166.090666" xlink:href="#mdf204dcc9d" y="110.809171"/>
    </g>
   </g>
   <g id="line2d_31">
    <g clip-path="url(#pf253e5cd85)">
     <use style="fill:#009cff;stroke:#009cff;stroke-width:0.5;" x="197.682028" xlink:href="#mdf204dcc9d" y="70.647077"/>
    </g>
   </g>
   <g id="line2d_32">
    <g clip-path="url(#pf253e5cd85)">
     <use style="fill:#009cff;stroke:#009cff;stroke-width:0.5;" x="175.754416" xlink:href="#mdf204dcc9d" y="43.588533"/>
    </g>
   </g>
   <g id="line2d_33">
    <g clip-path="url(#pf253e5cd85)">
     <use style="fill:#009cff;stroke:#009cff;stroke-width:0.5;" x="159.37371" xlink:href="#mdf204dcc9d" y="104.719195"/>
    </g>
   </g>
   <g id="line2d_34">
    <g clip-path="url(#pf253e5cd85)">
     <use style="fill:#009cff;stroke:#009cff;stroke-width:0.5;" x="149.045487" xlink:href="#mdf204dcc9d" y="95.006982"/>
    </g>
   </g>
   <g id="line2d_35">
    <g clip-path="url(#pf253e5cd85)">
     <use style="fill:#009cff;stroke:#009cff;stroke-width:0.5;" x="116.948547" xlink:href="#mdf204dcc9d" y="22.576672"/>
    </g>
   </g>
   <g id="line2d_36">
    <g clip-path="url(#pf253e5cd85)">
     <use style="fill:#009cff;stroke:#009cff;stroke-width:0.5;" x="116.977437" xlink:href="#mdf204dcc9d" y="36.055434"/>
    </g>
   </g>
   <g id="line2d_37">
    <g clip-path="url(#pf253e5cd85)">
     <use style="fill:#009cff;stroke:#009cff;stroke-width:0.5;" x="84.837163" xlink:href="#mdf204dcc9d" y="55.306686"/>
    </g>
   </g>
   <g id="line2d_38">
    <g clip-path="url(#pf253e5cd85)">
     <use style="fill:#009cff;stroke:#009cff;stroke-width:0.5;" x="121.166507" xlink:href="#mdf204dcc9d" y="38.970541"/>
    </g>
   </g>
   <g id="line2d_39">
    <g clip-path="url(#pf253e5cd85)">
     <use style="fill:#009cff;stroke:#009cff;stroke-width:0.5;" x="99.556686" xlink:href="#mdf204dcc9d" y="38.95611"/>
    </g>
   </g>
   <g id="line2d_40">
    <g clip-path="url(#pf253e5cd85)">
     <use style="fill:#009cff;stroke:#009cff;stroke-width:0.5;" x="149.117712" xlink:href="#mdf204dcc9d" y="72.205649"/>
    </g>
   </g>
   <g id="line2d_41">
    <g clip-path="url(#pf253e5cd85)">
     <use style="fill:#009cff;stroke:#009cff;stroke-width:0.5;" x="121.137617" xlink:href="#mdf204dcc9d" y="139.152094"/>
    </g>
   </g>
   <g id="line2d_42">
    <g clip-path="url(#pf253e5cd85)">
     <use style="fill:#009cff;stroke:#009cff;stroke-width:0.5;" x="80.301412" xlink:href="#mdf204dcc9d" y="63.647933"/>
    </g>
   </g>
   <g id="line2d_43">
    <g clip-path="url(#pf253e5cd85)">
     <use style="fill:#009cff;stroke:#009cff;stroke-width:0.5;" x="163.952796" xlink:href="#mdf204dcc9d" y="111.458577"/>
    </g>
   </g>
   <g id="line2d_44">
    <g clip-path="url(#pf253e5cd85)">
     <use style="fill:#009cff;stroke:#009cff;stroke-width:0.5;" x="114.3051" xlink:href="#mdf204dcc9d" y="45.406867"/>
    </g>
   </g>
   <g id="line2d_45">
    <g clip-path="url(#pf253e5cd85)">
     <use style="fill:#009cff;stroke:#009cff;stroke-width:0.5;" x="173.630991" xlink:href="#mdf204dcc9d" y="99.23533"/>
    </g>
   </g>
   <g id="line2d_46">
    <g clip-path="url(#pf253e5cd85)">
     <use style="fill:#009cff;stroke:#009cff;stroke-width:0.5;" x="120.357583" xlink:href="#mdf204dcc9d" y="124.100328"/>
    </g>
   </g>
   <g id="line2d_47">
    <g clip-path="url(#pf253e5cd85)">
     <use style="fill:#009cff;stroke:#009cff;stroke-width:0.5;" x="131.783631" xlink:href="#mdf204dcc9d" y="42.520622"/>
    </g>
   </g>
   <g id="line2d_48">
    <g clip-path="url(#pf253e5cd85)">
     <use style="fill:#009cff;stroke:#009cff;stroke-width:0.5;" x="124.618878" xlink:href="#mdf204dcc9d" y="152.356664"/>
    </g>
   </g>
   <g id="line2d_49">
    <g clip-path="url(#pf253e5cd85)">
     <use style="fill:#009cff;stroke:#009cff;stroke-width:0.5;" x="141.028474" xlink:href="#mdf204dcc9d" y="128.703888"/>
    </g>
   </g>
   <g id="line2d_50">
    <g clip-path="url(#pf253e5cd85)">
     <use style="fill:#009cff;stroke:#009cff;stroke-width:0.5;" x="98.675537" xlink:href="#mdf204dcc9d" y="137.622385"/>
    </g>
   </g>
   <g id="line2d_51">
    <g clip-path="url(#pf253e5cd85)">
     <use style="fill:#009cff;stroke:#009cff;stroke-width:0.5;" x="66.564153" xlink:href="#mdf204dcc9d" y="75.034169"/>
    </g>
   </g>
   <g id="line2d_52">
    <g clip-path="url(#pf253e5cd85)">
     <use style="fill:#009cff;stroke:#009cff;stroke-width:0.5;" x="63.761809" xlink:href="#mdf204dcc9d" y="88.094426"/>
    </g>
   </g>
   <g id="line2d_53">
    <defs>
     <path d="M 0 -1.5 
L -0.336771 -0.463525 
L -1.426585 -0.463525 
L -0.544907 0.177051 
L -0.881678 1.213525 
L -0 0.572949 
L 0.881678 1.213525 
L 0.544907 0.177051 
L 1.426585 -0.463525 
L 0.336771 -0.463525 
z
" id="m7a62b8b088" style="stroke:#ff8800;stroke-linejoin:bevel;stroke-opacity:0.8;stroke-width:0.5;"/>
    </defs>
    <g clip-path="url(#pf253e5cd85)">
     <use style="fill:#ff8800;fill-opacity:0.8;stroke:#ff8800;stroke-linejoin:bevel;stroke-opacity:0.8;stroke-width:0.5;" x="111.459422" xlink:href="#m7a62b8b088" y="102.424631"/>
    </g>
   </g>
   <g id="line2d_54">
    <g clip-path="url(#pf253e5cd85)">
     <use style="fill:#ff8800;fill-opacity:0.8;stroke:#ff8800;stroke-linejoin:bevel;stroke-opacity:0.8;stroke-width:0.5;" x="115.951838" xlink:href="#m7a62b8b088" y="102.54008"/>
    </g>
   </g>
   <g id="line2d_55">
    <g clip-path="url(#pf253e5cd85)">
     <use style="fill:#ff8800;fill-opacity:0.8;stroke:#ff8800;stroke-linejoin:bevel;stroke-opacity:0.8;stroke-width:0.5;" x="99.744472" xlink:href="#m7a62b8b088" y="68.525687"/>
    </g>
   </g>
   <g id="line2d_56">
    <g clip-path="url(#pf253e5cd85)">
     <use style="fill:#ff8800;fill-opacity:0.8;stroke:#ff8800;stroke-linejoin:bevel;stroke-opacity:0.8;stroke-width:0.5;" x="105.840291" xlink:href="#m7a62b8b088" y="81.730256"/>
    </g>
   </g>
   <g id="line2d_57">
    <g clip-path="url(#pf253e5cd85)">
     <use style="fill:#ff8800;fill-opacity:0.8;stroke:#ff8800;stroke-linejoin:bevel;stroke-opacity:0.8;stroke-width:0.5;" x="112.152785" xlink:href="#m7a62b8b088" y="97.128372"/>
    </g>
   </g>
   <g id="line2d_58">
    <g clip-path="url(#pf253e5cd85)">
     <use style="fill:#ff8800;fill-opacity:0.8;stroke:#ff8800;stroke-linejoin:bevel;stroke-opacity:0.8;stroke-width:0.5;" x="122.235442" xlink:href="#m7a62b8b088" y="93.491703"/>
    </g>
   </g>
   <g id="line2d_59">
    <g clip-path="url(#pf253e5cd85)">
     <use style="fill:#ff8800;fill-opacity:0.8;stroke:#ff8800;stroke-linejoin:bevel;stroke-opacity:0.8;stroke-width:0.5;" x="134.542639" xlink:href="#m7a62b8b088" y="73.057091"/>
    </g>
   </g>
   <g id="line2d_60">
    <g clip-path="url(#pf253e5cd85)">
     <use style="fill:#ff8800;fill-opacity:0.8;stroke:#ff8800;stroke-linejoin:bevel;stroke-opacity:0.8;stroke-width:0.5;" x="98.632202" xlink:href="#m7a62b8b088" y="91.817681"/>
    </g>
   </g>
   <g id="line2d_61">
    <g clip-path="url(#pf253e5cd85)">
     <use style="fill:#ff8800;fill-opacity:0.8;stroke:#ff8800;stroke-linejoin:bevel;stroke-opacity:0.8;stroke-width:0.5;" x="96.711008" xlink:href="#m7a62b8b088" y="87.546039"/>
    </g>
   </g>
   <g id="line2d_62">
    <g clip-path="url(#pf253e5cd85)">
     <use style="fill:#ff8800;fill-opacity:0.8;stroke:#ff8800;stroke-linejoin:bevel;stroke-opacity:0.8;stroke-width:0.5;" x="118.494169" xlink:href="#m7a62b8b088" y="110.621566"/>
    </g>
   </g>
   <g id="line2d_63">
    <g clip-path="url(#pf253e5cd85)">
     <use style="fill:#ff8800;fill-opacity:0.8;stroke:#ff8800;stroke-linejoin:bevel;stroke-opacity:0.8;stroke-width:0.5;" x="124.907779" xlink:href="#m7a62b8b088" y="63.344878"/>
    </g>
   </g>
   <g id="line2d_64">
    <g clip-path="url(#pf253e5cd85)">
     <use style="fill:#ff8800;fill-opacity:0.8;stroke:#ff8800;stroke-linejoin:bevel;stroke-opacity:0.8;stroke-width:0.5;" x="110.404932" xlink:href="#m7a62b8b088" y="81.54265"/>
    </g>
   </g>
   <g id="line2d_65">
    <g clip-path="url(#pf253e5cd85)">
     <use style="fill:#ff8800;fill-opacity:0.8;stroke:#ff8800;stroke-linejoin:bevel;stroke-opacity:0.8;stroke-width:0.5;" x="119.129752" xlink:href="#m7a62b8b088" y="106.090161"/>
    </g>
   </g>
   <g id="line2d_66">
    <g clip-path="url(#pf253e5cd85)">
     <use style="fill:#ff8800;fill-opacity:0.8;stroke:#ff8800;stroke-linejoin:bevel;stroke-opacity:0.8;stroke-width:0.5;" x="121.354293" xlink:href="#m7a62b8b088" y="80.849952"/>
    </g>
   </g>
   <g id="line2d_67">
    <g clip-path="url(#pf253e5cd85)">
     <use style="fill:#ff8800;fill-opacity:0.8;stroke:#ff8800;stroke-linejoin:bevel;stroke-opacity:0.8;stroke-width:0.5;" x="98.603312" xlink:href="#m7a62b8b088" y="105.152132"/>
    </g>
   </g>
   <g id="line2d_68">
    <g clip-path="url(#pf253e5cd85)">
     <use style="fill:#ff8800;fill-opacity:0.8;stroke:#ff8800;stroke-linejoin:bevel;stroke-opacity:0.8;stroke-width:0.5;" x="99.888923" xlink:href="#m7a62b8b088" y="72.566429"/>
    </g>
   </g>
   <g id="line2d_69">
    <g clip-path="url(#pf253e5cd85)">
     <use style="fill:#ff8800;fill-opacity:0.8;stroke:#ff8800;stroke-linejoin:bevel;stroke-opacity:0.8;stroke-width:0.5;" x="116.659646" xlink:href="#m7a62b8b088" y="71.816006"/>
    </g>
   </g>
   <g id="line2d_70">
    <g clip-path="url(#pf253e5cd85)">
     <use style="fill:#ff8800;fill-opacity:0.8;stroke:#ff8800;stroke-linejoin:bevel;stroke-opacity:0.8;stroke-width:0.5;" x="121.989876" xlink:href="#m7a62b8b088" y="75.87118"/>
    </g>
   </g>
   <g id="line2d_71">
    <g clip-path="url(#pf253e5cd85)">
     <use style="fill:#ff8800;fill-opacity:0.8;stroke:#ff8800;stroke-linejoin:bevel;stroke-opacity:0.8;stroke-width:0.5;" x="95.425397" xlink:href="#m7a62b8b088" y="88.4985"/>
    </g>
   </g>
   <g id="line2d_72">
    <g clip-path="url(#pf253e5cd85)">
     <use style="fill:#ff8800;fill-opacity:0.8;stroke:#ff8800;stroke-linejoin:bevel;stroke-opacity:0.8;stroke-width:0.5;" x="111.228301" xlink:href="#m7a62b8b088" y="98.816825"/>
    </g>
   </g>
   <g id="line2d_73">
    <g clip-path="url(#pf253e5cd85)">
     <use style="fill:#ff8800;fill-opacity:0.8;stroke:#ff8800;stroke-linejoin:bevel;stroke-opacity:0.8;stroke-width:0.5;" x="126.843418" xlink:href="#m7a62b8b088" y="70.849114"/>
    </g>
   </g>
   <g id="line2d_74">
    <g clip-path="url(#pf253e5cd85)">
     <use style="fill:#ff8800;fill-opacity:0.8;stroke:#ff8800;stroke-linejoin:bevel;stroke-opacity:0.8;stroke-width:0.5;" x="94.688699" xlink:href="#m7a62b8b088" y="90.663184"/>
    </g>
   </g>
   <g id="line2d_75">
    <g clip-path="url(#pf253e5cd85)">
     <use style="fill:#ff8800;fill-opacity:0.8;stroke:#ff8800;stroke-linejoin:bevel;stroke-opacity:0.8;stroke-width:0.5;" x="116.876322" xlink:href="#m7a62b8b088" y="77.64622"/>
    </g>
   </g>
   <g id="line2d_76">
    <g clip-path="url(#pf253e5cd85)">
     <use style="fill:#ff8800;fill-opacity:0.8;stroke:#ff8800;stroke-linejoin:bevel;stroke-opacity:0.8;stroke-width:0.5;" x="129.096849" xlink:href="#m7a62b8b088" y="97.647896"/>
    </g>
   </g>
   <g id="line2d_77">
    <g clip-path="url(#pf253e5cd85)">
     <use style="fill:#ff8800;fill-opacity:0.8;stroke:#ff8800;stroke-linejoin:bevel;stroke-opacity:0.8;stroke-width:0.5;" x="120.169797" xlink:href="#m7a62b8b088" y="66.736215"/>
    </g>
   </g>
   <g id="line2d_78">
    <g clip-path="url(#pf253e5cd85)">
     <use style="fill:#ff8800;fill-opacity:0.8;stroke:#ff8800;stroke-linejoin:bevel;stroke-opacity:0.8;stroke-width:0.5;" x="103.659085" xlink:href="#m7a62b8b088" y="59.578328"/>
    </g>
   </g>
   <g id="line2d_79">
    <g clip-path="url(#pf253e5cd85)">
     <use style="fill:#ff8800;fill-opacity:0.8;stroke:#ff8800;stroke-linejoin:bevel;stroke-opacity:0.8;stroke-width:0.5;" x="113.409506" xlink:href="#m7a62b8b088" y="77.372027"/>
    </g>
   </g>
   <g id="line2d_80">
    <g clip-path="url(#pf253e5cd85)">
     <use style="fill:#ff8800;fill-opacity:0.8;stroke:#ff8800;stroke-linejoin:bevel;stroke-opacity:0.8;stroke-width:0.5;" x="116.861877" xlink:href="#m7a62b8b088" y="97.878795"/>
    </g>
   </g>
   <g id="line2d_81">
    <g clip-path="url(#pf253e5cd85)">
     <use style="fill:#ff8800;fill-opacity:0.8;stroke:#ff8800;stroke-linejoin:bevel;stroke-opacity:0.8;stroke-width:0.5;" x="120.71871" xlink:href="#m7a62b8b088" y="92.221756"/>
    </g>
   </g>
   <g id="line2d_82">
    <g clip-path="url(#pf253e5cd85)">
     <use style="fill:#ff8800;fill-opacity:0.8;stroke:#ff8800;stroke-linejoin:bevel;stroke-opacity:0.8;stroke-width:0.5;" x="132.607" xlink:href="#m7a62b8b088" y="80.431446"/>
    </g>
   </g>
   <g id="line2d_83">
    <g clip-path="url(#pf253e5cd85)">
     <use style="fill:#ff8800;fill-opacity:0.8;stroke:#ff8800;stroke-linejoin:bevel;stroke-opacity:0.8;stroke-width:0.5;" x="122.177662" xlink:href="#m7a62b8b088" y="99.82701"/>
    </g>
   </g>
   <g id="line2d_84">
    <g clip-path="url(#pf253e5cd85)">
     <use style="fill:#ff8800;fill-opacity:0.8;stroke:#ff8800;stroke-linejoin:bevel;stroke-opacity:0.8;stroke-width:0.5;" x="114.695117" xlink:href="#m7a62b8b088" y="88.743831"/>
    </g>
   </g>
   <g id="line2d_85">
    <g clip-path="url(#pf253e5cd85)">
     <use style="fill:#ff8800;fill-opacity:0.8;stroke:#ff8800;stroke-linejoin:bevel;stroke-opacity:0.8;stroke-width:0.5;" x="122.82769" xlink:href="#m7a62b8b088" y="95.800699"/>
    </g>
   </g>
   <g id="line2d_86">
    <g clip-path="url(#pf253e5cd85)">
     <use style="fill:#ff8800;fill-opacity:0.8;stroke:#ff8800;stroke-linejoin:bevel;stroke-opacity:0.8;stroke-width:0.5;" x="104.309113" xlink:href="#m7a62b8b088" y="87.632627"/>
    </g>
   </g>
   <g id="line2d_87">
    <g clip-path="url(#pf253e5cd85)">
     <use style="fill:#ff8800;fill-opacity:0.8;stroke:#ff8800;stroke-linejoin:bevel;stroke-opacity:0.8;stroke-width:0.5;" x="102.691266" xlink:href="#m7a62b8b088" y="75.726867"/>
    </g>
   </g>
   <g id="line2d_88">
    <g clip-path="url(#pf253e5cd85)">
     <use style="fill:#ff8800;fill-opacity:0.8;stroke:#ff8800;stroke-linejoin:bevel;stroke-opacity:0.8;stroke-width:0.5;" x="114.825122" xlink:href="#m7a62b8b088" y="71.411932"/>
    </g>
   </g>
   <g id="line2d_89">
    <g clip-path="url(#pf253e5cd85)">
     <use style="fill:#ff8800;fill-opacity:0.8;stroke:#ff8800;stroke-linejoin:bevel;stroke-opacity:0.8;stroke-width:0.5;" x="125.933379" xlink:href="#m7a62b8b088" y="92.423793"/>
    </g>
   </g>
   <g id="line2d_90">
    <g clip-path="url(#pf253e5cd85)">
     <use style="fill:#ff8800;fill-opacity:0.8;stroke:#ff8800;stroke-linejoin:bevel;stroke-opacity:0.8;stroke-width:0.5;" x="125.572252" xlink:href="#m7a62b8b088" y="102.684393"/>
    </g>
   </g>
   <g id="line2d_91">
    <g clip-path="url(#pf253e5cd85)">
     <use style="fill:#ff8800;fill-opacity:0.8;stroke:#ff8800;stroke-linejoin:bevel;stroke-opacity:0.8;stroke-width:0.5;" x="116.269629" xlink:href="#m7a62b8b088" y="69.319404"/>
    </g>
   </g>
   <g id="line2d_92">
    <g clip-path="url(#pf253e5cd85)">
     <use style="fill:#ff8800;fill-opacity:0.8;stroke:#ff8800;stroke-linejoin:bevel;stroke-opacity:0.8;stroke-width:0.5;" x="124.893334" xlink:href="#m7a62b8b088" y="87.069809"/>
    </g>
   </g>
   <g id="patch_3">
    <path d="M 37.906562 158.298438 
L 37.906562 8.64 
" style="fill:none;stroke:#000000;stroke-linecap:square;stroke-linejoin:miter;"/>
   </g>
   <g id="patch_4">
    <path d="M 213.209052 158.298438 
L 213.209052 8.64 
" style="fill:none;stroke:#000000;stroke-linecap:square;stroke-linejoin:miter;"/>
   </g>
   <g id="patch_5">
    <path d="M 37.906562 158.298438 
L 213.209052 158.298438 
" style="fill:none;stroke:#000000;stroke-linecap:square;stroke-linejoin:miter;"/>
   </g>
   <g id="patch_6">
    <path d="M 37.906562 8.64 
L 213.209052 8.64 
" style="fill:none;stroke:#000000;stroke-linecap:square;stroke-linejoin:miter;"/>
   </g>
   <g id="legend_1">
    <g id="patch_7">
     <path d="M 155.334052 35.6725 
L 207.609052 35.6725 
Q 209.209052 35.6725 209.209052 34.0725 
L 209.209052 14.24 
Q 209.209052 12.64 207.609052 12.64 
L 155.334052 12.64 
Q 153.734052 12.64 153.734052 14.24 
L 153.734052 34.0725 
Q 153.734052 35.6725 155.334052 35.6725 
z
" style="fill:#ffffff;opacity:0.8;stroke:#cccccc;stroke-linejoin:miter;"/>
    </g>
    <g id="line2d_93"/>
    <g id="line2d_94">
     <defs>
      <path d="M 0 1.125 
C 0.298353 1.125 0.584527 1.006463 0.795495 0.795495 
C 1.006463 0.584527 1.125 0.298353 1.125 0 
C 1.125 -0.298353 1.006463 -0.584527 0.795495 -0.795495 
C 0.584527 -1.006463 0.298353 -1.125 0 -1.125 
C -0.298353 -1.125 -0.584527 -1.006463 -0.795495 -0.795495 
C -1.006463 -0.584527 -1.125 -0.298353 -1.125 0 
C -1.125 0.298353 -1.006463 0.584527 -0.795495 0.795495 
C -0.584527 1.006463 -0.298353 1.125 0 1.125 
z
" id="mf3e401e7ea" style="stroke:#009cff;stroke-width:0.5;"/>
     </defs>
     <g>
      <use style="fill:#009cff;stroke:#009cff;stroke-width:0.5;" x="164.934052" xlink:href="#mf3e401e7ea" y="18.76625"/>
     </g>
    </g>
    <g id="text_15">
     <!-- Class 1 -->
     <defs>
      <path d="M 58.796875 25.09375 
L 68.265625 22.703125 
Q 65.28125 11.03125 57.546875 4.90625 
Q 49.8125 -1.21875 38.625 -1.21875 
Q 27.046875 -1.21875 19.796875 3.484375 
Q 12.546875 8.203125 8.765625 17.140625 
Q 4.984375 26.078125 4.984375 36.328125 
Q 4.984375 47.515625 9.25 55.828125 
Q 13.53125 64.15625 21.40625 68.46875 
Q 29.296875 72.796875 38.765625 72.796875 
Q 49.515625 72.796875 56.828125 67.328125 
Q 64.15625 61.859375 67.046875 51.953125 
L 57.71875 49.75 
Q 55.21875 57.5625 50.484375 61.125 
Q 45.75 64.703125 38.578125 64.703125 
Q 30.328125 64.703125 24.78125 60.734375 
Q 19.234375 56.78125 16.984375 50.109375 
Q 14.75 43.453125 14.75 36.375 
Q 14.75 27.25 17.40625 20.4375 
Q 20.0625 13.625 25.671875 10.25 
Q 31.296875 6.890625 37.84375 6.890625 
Q 45.796875 6.890625 51.3125 11.46875 
Q 56.84375 16.0625 58.796875 25.09375 
z
" id="ArialMT-67"/>
      <path d="M 6.390625 0 
L 6.390625 71.578125 
L 15.1875 71.578125 
L 15.1875 0 
z
" id="ArialMT-108"/>
      <path d="M 40.4375 6.390625 
Q 35.546875 2.25 31.03125 0.53125 
Q 26.515625 -1.171875 21.34375 -1.171875 
Q 12.796875 -1.171875 8.203125 3 
Q 3.609375 7.171875 3.609375 13.671875 
Q 3.609375 17.484375 5.34375 20.625 
Q 7.078125 23.78125 9.890625 25.6875 
Q 12.703125 27.59375 16.21875 28.5625 
Q 18.796875 29.25 24.03125 29.890625 
Q 34.671875 31.15625 39.703125 32.90625 
Q 39.75 34.71875 39.75 35.203125 
Q 39.75 40.578125 37.25 42.78125 
Q 33.890625 45.75 27.25 45.75 
Q 21.046875 45.75 18.09375 43.578125 
Q 15.140625 41.40625 13.71875 35.890625 
L 5.125 37.0625 
Q 6.296875 42.578125 8.984375 45.96875 
Q 11.671875 49.359375 16.75 51.1875 
Q 21.828125 53.03125 28.515625 53.03125 
Q 35.15625 53.03125 39.296875 51.46875 
Q 43.453125 49.90625 45.40625 47.53125 
Q 47.359375 45.171875 48.140625 41.546875 
Q 48.578125 39.3125 48.578125 33.453125 
L 48.578125 21.734375 
Q 48.578125 9.46875 49.140625 6.21875 
Q 49.703125 2.984375 51.375 0 
L 42.1875 0 
Q 40.828125 2.734375 40.4375 6.390625 
z
M 39.703125 26.03125 
Q 34.90625 24.078125 25.34375 22.703125 
Q 19.921875 21.921875 17.671875 20.9375 
Q 15.4375 19.96875 14.203125 18.09375 
Q 12.984375 16.21875 12.984375 13.921875 
Q 12.984375 10.40625 15.640625 8.0625 
Q 18.3125 5.71875 23.4375 5.71875 
Q 28.515625 5.71875 32.46875 7.9375 
Q 36.421875 10.15625 38.28125 14.015625 
Q 39.703125 17 39.703125 22.796875 
z
" id="ArialMT-97"/>
      <path d="M 3.078125 15.484375 
L 11.765625 16.84375 
Q 12.5 11.625 15.84375 8.84375 
Q 19.1875 6.0625 25.203125 6.0625 
Q 31.25 6.0625 34.171875 8.515625 
Q 37.109375 10.984375 37.109375 14.3125 
Q 37.109375 17.28125 34.515625 19 
Q 32.71875 20.171875 25.53125 21.96875 
Q 15.875 24.421875 12.140625 26.203125 
Q 8.40625 27.984375 6.46875 31.125 
Q 4.546875 34.28125 4.546875 38.09375 
Q 4.546875 41.546875 6.125 44.5 
Q 7.71875 47.46875 10.453125 49.421875 
Q 12.5 50.921875 16.03125 51.96875 
Q 19.578125 53.03125 23.640625 53.03125 
Q 29.734375 53.03125 34.34375 51.265625 
Q 38.96875 49.515625 41.15625 46.5 
Q 43.359375 43.5 44.1875 38.484375 
L 35.59375 37.3125 
Q 35.015625 41.3125 32.203125 43.546875 
Q 29.390625 45.796875 24.265625 45.796875 
Q 18.21875 45.796875 15.625 43.796875 
Q 13.03125 41.796875 13.03125 39.109375 
Q 13.03125 37.40625 14.109375 36.03125 
Q 15.1875 34.625 17.484375 33.6875 
Q 18.796875 33.203125 25.25 31.453125 
Q 34.578125 28.953125 38.25 27.359375 
Q 41.9375 25.78125 44.03125 22.75 
Q 46.140625 19.734375 46.140625 15.234375 
Q 46.140625 10.84375 43.578125 6.953125 
Q 41.015625 3.078125 36.171875 0.953125 
Q 31.34375 -1.171875 25.25 -1.171875 
Q 15.140625 -1.171875 9.84375 3.03125 
Q 4.546875 7.234375 3.078125 15.484375 
z
" id="ArialMT-115"/>
      <path id="ArialMT-32"/>
      <path d="M 37.25 0 
L 28.46875 0 
L 28.46875 56 
Q 25.296875 52.984375 20.140625 49.953125 
Q 14.984375 46.921875 10.890625 45.40625 
L 10.890625 53.90625 
Q 18.265625 57.375 23.78125 62.296875 
Q 29.296875 67.234375 31.59375 71.875 
L 37.25 71.875 
z
" id="ArialMT-49"/>
     </defs>
     <g transform="translate(179.334052 21.56625)scale(0.08 -0.08)">
      <use xlink:href="#ArialMT-67"/>
      <use x="72.216797" xlink:href="#ArialMT-108"/>
      <use x="94.433594" xlink:href="#ArialMT-97"/>
      <use x="150.048828" xlink:href="#ArialMT-115"/>
      <use x="200.048828" xlink:href="#ArialMT-115"/>
      <use x="250.048828" xlink:href="#ArialMT-32"/>
      <use x="277.832031" xlink:href="#ArialMT-49"/>
     </g>
    </g>
    <g id="line2d_95"/>
    <g id="line2d_96">
     <defs>
      <path d="M 0 -2.25 
L -0.505156 -0.695288 
L -2.139877 -0.695288 
L -0.81736 0.265576 
L -1.322517 1.820288 
L -0 0.859424 
L 1.322517 1.820288 
L 0.81736 0.265576 
L 2.139877 -0.695288 
L 0.505156 -0.695288 
z
" id="mfb4a71516f" style="stroke:#ff8800;stroke-linejoin:bevel;stroke-opacity:0.8;stroke-width:0.5;"/>
     </defs>
     <g>
      <use style="fill:#ff8800;fill-opacity:0.8;stroke:#ff8800;stroke-linejoin:bevel;stroke-opacity:0.8;stroke-width:0.5;" x="164.934052" xlink:href="#mfb4a71516f" y="28.0825"/>
     </g>
    </g>
    <g id="text_16">
     <!-- Class 2 -->
     <g transform="translate(179.334052 30.8825)scale(0.08 -0.08)">
      <use xlink:href="#ArialMT-67"/>
      <use x="72.216797" xlink:href="#ArialMT-108"/>
      <use x="94.433594" xlink:href="#ArialMT-97"/>
      <use x="150.048828" xlink:href="#ArialMT-115"/>
      <use x="200.048828" xlink:href="#ArialMT-115"/>
      <use x="250.048828" xlink:href="#ArialMT-32"/>
      <use x="277.832031" xlink:href="#ArialMT-50"/>
     </g>
    </g>
   </g>
  </g>
  <g id="text_17">
   <!-- b -->
   <defs>
    <path d="M 6.59375 0 
L 6.59375 71.578125 
L 20.3125 71.578125 
L 20.3125 45.796875 
Q 26.65625 53.03125 35.359375 53.03125 
Q 44.828125 53.03125 51.03125 46.171875 
Q 57.234375 39.3125 57.234375 26.46875 
Q 57.234375 13.1875 50.90625 6 
Q 44.578125 -1.171875 35.546875 -1.171875 
Q 31.109375 -1.171875 26.78125 1.046875 
Q 22.46875 3.265625 19.34375 7.625 
L 19.34375 0 
z
M 20.21875 27.046875 
Q 20.21875 19 22.75 15.140625 
Q 26.3125 9.671875 32.234375 9.671875 
Q 36.765625 9.671875 39.96875 13.546875 
Q 43.171875 17.4375 43.171875 25.78125 
Q 43.171875 34.671875 39.9375 38.59375 
Q 36.71875 42.53125 31.6875 42.53125 
Q 26.765625 42.53125 23.484375 38.6875 
Q 20.21875 34.859375 20.21875 27.046875 
z
" id="Arial-BoldMT-98"/>
   </defs>
   <g transform="translate(4.464 11.664)scale(0.14 -0.14)">
    <use xlink:href="#Arial-BoldMT-98"/>
   </g>
  </g>
 </g>
 <defs>
  <clipPath id="pf253e5cd85">
   <rect height="149.658437" width="175.30249" x="37.906562" y="8.64"/>
  </clipPath>
 </defs>
</svg>
